<?xml version="1.0" encoding="utf-8"?>
<!-- Generator: Adobe Illustrator 26.1.0, SVG Export Plug-In . SVG Version: 6.00 Build 0)  -->
<svg version="1.1" id="a" xmlns="http://www.w3.org/2000/svg" xmlns:xlink="http://www.w3.org/1999/xlink" x="0px" y="0px"
	 viewBox="0 0 40.93 44.82" style="enable-background:new 0 0 40.93 44.82;" xml:space="preserve">
<style type="text/css">
	.st0{enable-background:new    ;}
	.st1{fill:#525252;}
</style>
<g class="st0">
	<path class="st1" d="M5.22,30.89c-1.01,0-1.84-0.32-2.48-0.97c-0.65-0.65-0.97-1.42-0.97-2.3c0-0.91,0.32-1.67,0.97-2.29
		c0.65-0.61,1.48-0.92,2.48-0.92c1.03,0,1.87,0.31,2.5,0.92c0.64,0.61,0.95,1.38,0.95,2.29c0,0.89-0.32,1.66-0.95,2.3
		C7.09,30.56,6.25,30.89,5.22,30.89z"/>
	<polygon class="st1" points="2.99,21.85 1.87,5.4 8.57,5.4 7.45,21.85 	"/>
</g>
</svg>
